<svg width="22" height="22" viewBox="0 0 22 22" fill="none" xmlns="http://www.w3.org/2000/svg">
<path file='currentColor' d="M17.875 2.75H4.125C3.76033 2.75 3.41059 2.89487 3.15273 3.15273C2.89487 3.41059 2.75 3.76033 2.75 4.125V17.875C2.75 18.2397 2.89487 18.5894 3.15273 18.8473C3.41059 19.1051 3.76033 19.25 4.125 19.25H17.875C18.2397 19.25 18.5894 19.1051 18.8473 18.8473C19.1051 18.5894 19.25 18.2397 19.25 17.875V4.125C19.25 3.76033 19.1051 3.41059 18.8473 3.15273C18.5894 2.89487 18.2397 2.75 17.875 2.75Z" stroke="#6B7588" stroke-width="1.8" stroke-linecap="round" stroke-linejoin="round" />
<path d="M9.6263 14.2083L11.918 16.0417L15.5846 11.4583M6.41797 6.875H15.5846M6.41797 10.5417H10.0846" stroke="#6B7588" stroke-width="1.8" stroke-linecap="round" stroke-linejoin="round" />
</svg>
