<svg width="23" height="23" viewBox="0 0 23 23" fill="none" xmlns="http://www.w3.org/2000/svg">
<path d="M11.8281 3.17188C12.508 3.17188 13.1726 3.37348 13.7379 3.7512C14.3032 4.12892 14.7438 4.66578 15.004 5.2939C15.2641 5.92202 15.3322 6.61319 15.1996 7.28C15.0669 7.94681 14.7395 8.55931 14.2588 9.04005C13.7781 9.5208 13.1656 9.84819 12.4987 9.98082C11.8319 10.1135 11.1408 10.0454 10.5127 9.78521C9.88453 9.52503 9.34767 9.08444 8.96995 8.51915C8.59223 7.95385 8.39062 7.28925 8.39062 6.60938C8.39062 5.69769 8.75279 4.82335 9.39745 4.1787C10.0421 3.53404 10.9164 3.17188 11.8281 3.17188ZM11.8281 1.79688C10.8763 1.79687 9.94586 2.07912 9.15444 2.60793C8.36303 3.13673 7.7462 3.88834 7.38195 4.76771C7.01771 5.64708 6.9224 6.61471 7.1081 7.54825C7.29379 8.48178 7.75213 9.33929 8.42517 10.0123C9.09821 10.6854 9.95572 11.1437 10.8893 11.3294C11.8228 11.5151 12.7904 11.4198 13.6698 11.0555C14.5492 10.6913 15.3008 10.0745 15.8296 9.28306C16.3584 8.49164 16.6406 7.5612 16.6406 6.60938C16.6406 5.33302 16.1336 4.10894 15.2311 3.20642C14.3286 2.3039 13.1045 1.79688 11.8281 1.79688ZM18.7031 21.0469H17.3281V17.6094C17.3281 17.158 17.2392 16.711 17.0665 16.2939C16.8937 15.8768 16.6405 15.4979 16.3213 15.1787C16.0021 14.8595 15.6232 14.6063 15.2061 14.4335C14.789 14.2608 14.342 14.1719 13.8906 14.1719H9.76562C8.85394 14.1719 7.9796 14.534 7.33495 15.1787C6.69029 15.8234 6.32812 16.6977 6.32812 17.6094V21.0469H4.95312V17.6094C4.95313 16.333 5.46016 15.1089 6.36267 14.2064C7.26519 13.3039 8.48927 12.7969 9.76562 12.7969H13.8906C15.167 12.7969 16.3911 13.3039 17.2936 14.2064C18.1961 15.1089 18.7031 16.333 18.7031 17.6094V21.0469Z" fill="#6B7588"/>
</svg>
