<svg width="14" height="14" viewBox="0 0 14 14" fill="none" xmlns="http://www.w3.org/2000/svg">
<path d="M0.712925 0.710972C0.800011 0.623666 0.903465 0.554398 1.01736 0.507136C1.13126 0.459874 1.25336 0.435547 1.37668 0.435547C1.49999 0.435547 1.62209 0.459874 1.73599 0.507136C1.84989 0.554398 1.95334 0.623666 2.04043 0.710972L7.00168 5.6741L11.9629 0.710972C12.0501 0.623807 12.1536 0.554664 12.2675 0.507491C12.3813 0.460318 12.5034 0.436038 12.6267 0.436038C12.7499 0.436038 12.872 0.460318 12.9859 0.507491C13.0998 0.554664 13.2033 0.623807 13.2904 0.710972C13.3776 0.798137 13.4467 0.901617 13.4939 1.0155C13.5411 1.12939 13.5654 1.25145 13.5654 1.37472C13.5654 1.49799 13.5411 1.62006 13.4939 1.73394C13.4467 1.84783 13.3776 1.95131 13.2904 2.03847L8.3273 6.99972L13.2904 11.961C13.3776 12.0481 13.4467 12.1516 13.4939 12.2655C13.5411 12.3794 13.5654 12.5015 13.5654 12.6247C13.5654 12.748 13.5411 12.8701 13.4939 12.9839C13.4467 13.0978 13.3776 13.2013 13.2904 13.2885C13.2033 13.3756 13.0998 13.4448 12.9859 13.492C12.872 13.5391 12.7499 13.5634 12.6267 13.5634C12.5034 13.5634 12.3813 13.5391 12.2675 13.492C12.1536 13.4448 12.0501 13.3756 11.9629 13.2885L7.00168 8.32535L2.04043 13.2885C1.95326 13.3756 1.84978 13.4448 1.73589 13.492C1.62201 13.5391 1.49995 13.5634 1.37668 13.5634C1.25341 13.5634 1.13134 13.5391 1.01746 13.492C0.90357 13.4448 0.80009 13.3756 0.712925 13.2885C0.62576 13.2013 0.556617 13.0978 0.509444 12.9839C0.462271 12.8701 0.437991 12.748 0.437991 12.6247C0.437991 12.5015 0.462271 12.3794 0.509444 12.2655C0.556617 12.1516 0.62576 12.0481 0.712925 11.961L5.67605 6.99972L0.712925 2.03847C0.625619 1.95139 0.556351 1.84793 0.509089 1.73404C0.461827 1.62014 0.4375 1.49804 0.4375 1.37472C0.4375 1.25141 0.461827 1.12931 0.509089 1.01541C0.556351 0.901512 0.625619 0.798058 0.712925 0.710972Z" fill="#3A3A3C"/>
</svg>
