<svg width="22" height="22" viewBox="0 0 22 22" fill="none" xmlns="http://www.w3.org/2000/svg">
<path d="M10.082 9.05089C9.21794 8.82778 8.46487 8.29718 7.96399 7.55855C7.46311 6.81992 7.24881 5.92396 7.36126 5.03864C7.47372 4.15331 7.9052 3.33938 8.57483 2.74942C9.24446 2.15947 10.1063 1.83398 10.9987 1.83398C11.8911 1.83398 12.753 2.15947 13.4226 2.74942C14.0922 3.33938 14.5237 4.15331 14.6361 5.03864C14.7486 5.92396 14.5343 6.81992 14.0334 7.55855C13.5325 8.29718 12.7795 8.82778 11.9154 9.05089V10.9997H15.582C16.0683 10.9997 16.5346 11.1929 16.8784 11.5367C17.2222 11.8805 17.4154 12.3468 17.4154 12.8331V14.7819C18.2795 15.005 19.0325 15.5356 19.5334 16.2742C20.0343 17.0129 20.2486 17.9088 20.1361 18.7941C20.0237 19.6795 19.5922 20.4934 18.9226 21.0833C18.253 21.6733 17.3911 21.9988 16.4987 21.9988C15.6063 21.9988 14.7445 21.6733 14.0748 21.0833C13.4052 20.4934 12.9737 19.6795 12.8613 18.7941C12.7488 17.9088 12.9631 17.0129 13.464 16.2742C13.9649 15.5356 14.7179 15.005 15.582 14.7819V12.8331H6.41537V14.7819C7.27948 15.005 8.03255 15.5356 8.53342 16.2742C9.0343 17.0129 9.2486 17.9088 9.13615 18.7941C9.0237 19.6795 8.59222 20.4934 7.92259 21.0833C7.25296 21.6733 6.39115 21.9988 5.49871 21.9988C4.60626 21.9988 3.74446 21.6733 3.07483 21.0833C2.4052 20.4934 1.97372 19.6795 1.86126 18.7941C1.74881 17.9088 1.96311 17.0129 2.46399 16.2742C2.96487 15.5356 3.71794 15.005 4.58204 14.7819V12.8331C4.58204 12.3468 4.77519 11.8805 5.11901 11.5367C5.46283 11.1929 5.92914 10.9997 6.41537 10.9997H10.082V9.05089ZM10.9987 7.33305C11.4849 7.33305 11.9513 7.1399 12.2951 6.79608C12.6389 6.45227 12.832 5.98595 12.832 5.49972C12.832 5.01349 12.6389 4.54717 12.2951 4.20336C11.9513 3.85954 11.4849 3.66639 10.9987 3.66639C10.5125 3.66639 10.0462 3.85954 9.70234 4.20336C9.35853 4.54717 9.16537 5.01349 9.16537 5.49972C9.16537 5.98595 9.35853 6.45227 9.70234 6.79608C10.0462 7.1399 10.5125 7.33305 10.9987 7.33305ZM5.49871 20.1664C5.98494 20.1664 6.45125 19.9732 6.79507 19.6294C7.13889 19.2856 7.33204 18.8193 7.33204 18.3331C7.33204 17.8468 7.13889 17.3805 6.79507 17.0367C6.45125 16.6929 5.98494 16.4997 5.49871 16.4997C5.01248 16.4997 4.54616 16.6929 4.20234 17.0367C3.85853 17.3805 3.66537 17.8468 3.66537 18.3331C3.66537 18.8193 3.85853 19.2856 4.20234 19.6294C4.54616 19.9732 5.01248 20.1664 5.49871 20.1664ZM14.6654 18.3331C14.6654 18.8193 14.8585 19.2856 15.2023 19.6294C15.5462 19.9732 16.0125 20.1664 16.4987 20.1664C16.9849 20.1664 17.4513 19.9732 17.7951 19.6294C18.1389 19.2856 18.332 18.8193 18.332 18.3331C18.332 17.8468 18.1389 17.3805 17.7951 17.0367C17.4513 16.6929 16.9849 16.4997 16.4987 16.4997C16.0125 16.4997 15.5462 16.6929 15.2023 17.0367C14.8585 17.3805 14.6654 17.8468 14.6654 18.3331Z" fill="#6B7588"/>
</svg>
