<svg width="24" height="25" viewBox="0 0 24 25" fill="none" xmlns="http://www.w3.org/2000/svg">
<path fill-rule="evenodd" clip-rule="evenodd" d="M10.5 6.6C10.5 5.71634 11.3954 5 12.5 5C13.6046 5 14.5 5.71634 14.5 6.6C14.5 7.48366 13.6046 8.2 12.5 8.2C11.3954 8.2 10.5 7.48366 10.5 6.6ZM10.5 13C10.5 12.1163 11.3954 11.4 12.5 11.4C13.6046 11.4 14.5 12.1163 14.5 13C14.5 13.8837 13.6046 14.6 12.5 14.6C11.3954 14.6 10.5 13.8837 10.5 13ZM10.5 19.4C10.5 18.5163 11.3954 17.8 12.5 17.8C13.6046 17.8 14.5 18.5163 14.5 19.4C14.5 20.2837 13.6046 21 12.5 21C11.3954 21 10.5 20.2837 10.5 19.4Z" fill="#6B7588"/>
</svg>
