<svg width="21" height="21" viewBox="0 0 21 21" fill="none" xmlns="http://www.w3.org/2000/svg">
<g clip-path="url(#clip0_772_3736)">
<path d="M10.8287 20.2111C15.957 20.2111 20.1144 16.0537 20.1144 10.9254C20.1144 5.797 15.957 1.63965 10.8287 1.63965C5.70032 1.63965 1.54297 5.797 1.54297 10.9254C1.54297 16.0537 5.70032 20.2111 10.8287 20.2111Z" stroke="#6B7588" stroke-width="1.5" stroke-linecap="round" stroke-linejoin="round"/>
<path d="M8.68359 8.78251C8.68359 8.35869 8.80927 7.94439 9.04473 7.592C9.28019 7.23961 9.61486 6.96495 10.0064 6.80276C10.398 6.64058 10.8288 6.59814 11.2445 6.68082C11.6602 6.76351 12.042 6.96759 12.3417 7.26728C12.6414 7.56696 12.8455 7.94878 12.9281 8.36446C13.0108 8.78013 12.9684 9.21099 12.8062 9.60254C12.644 9.9941 12.3693 10.3288 12.017 10.5642C11.6646 10.7997 11.2503 10.9254 10.8265 10.9254V12.3539" stroke="#6B7588" stroke-width="1.5" stroke-linecap="round" stroke-linejoin="round"/>
<path d="M10.8292 14.4971C10.6173 14.4971 10.4102 14.5599 10.234 14.6776C10.0578 14.7954 9.92046 14.9627 9.83937 15.1585C9.75828 15.3543 9.73706 15.5697 9.7784 15.7775C9.81974 15.9854 9.92179 16.1763 10.0716 16.3261C10.2215 16.476 10.4124 16.578 10.6202 16.6193C10.8281 16.6607 11.0435 16.6395 11.2393 16.5584C11.435 16.4773 11.6024 16.3399 11.7201 16.1638C11.8378 15.9876 11.9007 15.7804 11.9007 15.5685C11.897 15.2855 11.7829 15.0151 11.5828 14.815C11.3826 14.6148 11.1123 14.5008 10.8292 14.4971Z" fill="#6B7588"/>
</g>
<defs>
<clipPath id="clip0_772_3736">
<rect width="20" height="20" fill="white" transform="translate(0.828125 0.925781)"/>
</clipPath>
</defs>
</svg>
