<svg width="28" height="28" viewBox="0 0 28 28" fill="none" xmlns="http://www.w3.org/2000/svg">
<path d="M18.3859 15.5395C18.3002 15.6147 18.2365 15.7118 18.2016 15.8203C18.1666 15.9289 18.1618 16.0448 18.1874 16.1559L19.2437 20.7293C19.2716 20.8488 19.2637 20.9738 19.2211 21.0888C19.1784 21.2039 19.1029 21.3038 19.0039 21.3762C18.9048 21.4485 18.7867 21.4902 18.6641 21.4959C18.5416 21.5016 18.4201 21.4711 18.3148 21.4083L14.3226 18.9864C14.2256 18.9274 14.1142 18.8962 14.0007 18.8962C13.8872 18.8962 13.7758 18.9274 13.6788 18.9864L9.68665 21.4083C9.58131 21.4711 9.4598 21.5016 9.33727 21.4959C9.21473 21.4902 9.09659 21.4485 8.99755 21.3762C8.89851 21.3038 8.82297 21.2039 8.78032 21.0888C8.73768 20.9738 8.72983 20.8488 8.75774 20.7293L9.81399 16.1559C9.83966 16.0448 9.83477 15.9289 9.79983 15.8203C9.76489 15.7118 9.70121 15.6147 9.61555 15.5395L6.09133 12.4653C5.99711 12.3852 5.92877 12.279 5.89494 12.16C5.86111 12.0411 5.86332 11.9148 5.90129 11.7971C5.93926 11.6795 6.01129 11.5757 6.10825 11.4989C6.20522 11.4222 6.32276 11.376 6.44602 11.3661L11.0913 10.9645C11.2047 10.9544 11.3131 10.9136 11.4049 10.8464C11.4968 10.7792 11.5685 10.6882 11.6124 10.5833L13.4273 6.25825C13.4757 6.14643 13.5559 6.05123 13.6577 5.98435C13.7596 5.91747 13.8788 5.88184 14.0007 5.88184C14.1226 5.88184 14.2418 5.91747 14.3437 5.98435C14.4456 6.05123 14.5257 6.14643 14.5741 6.25825L16.389 10.5833C16.4329 10.6882 16.5047 10.7792 16.5965 10.8464C16.6883 10.9136 16.7967 10.9544 16.9101 10.9645L21.5554 11.3661C21.6787 11.376 21.7962 11.4222 21.8932 11.4989C21.9901 11.5757 22.0622 11.6795 22.1001 11.7971C22.1381 11.9148 22.1403 12.0411 22.1065 12.16C22.0727 12.279 22.0043 12.3852 21.9101 12.4653L18.3859 15.5395Z" fill="#C7C9D9"/>
<path d="M22.6875 11.6006C22.6118 11.3673 22.4692 11.1615 22.2773 11.0087C22.0855 10.8558 21.8529 10.7628 21.6086 10.7413L16.9688 10.3412L15.15 6.01625C15.0553 5.78931 14.8956 5.59546 14.691 5.45911C14.4863 5.32276 14.2459 5.25 14 5.25C13.7541 5.25 13.5137 5.32276 13.3091 5.45911C13.1044 5.59546 12.9447 5.78931 12.85 6.01625L11.0367 10.3412L6.39142 10.7436C6.14614 10.7642 5.9124 10.8568 5.71952 11.0097C5.52663 11.1626 5.38319 11.3691 5.30718 11.6032C5.23117 11.8373 5.22598 12.0887 5.29225 12.3257C5.35852 12.5628 5.49331 12.775 5.6797 12.9358L9.20392 16.0155L8.14767 20.5889C8.09182 20.8282 8.10776 21.0787 8.19349 21.309C8.27923 21.5394 8.43095 21.7393 8.6297 21.8839C8.82845 22.0284 9.0654 22.1112 9.31093 22.1218C9.55647 22.1324 9.79968 22.0704 10.0102 21.9436L13.9945 19.5217L17.9875 21.9436C18.198 22.0704 18.4412 22.1324 18.6868 22.1218C18.9323 22.1112 19.1692 22.0284 19.368 21.8839C19.5667 21.7393 19.7185 21.5394 19.8042 21.309C19.8899 21.0787 19.9059 20.8282 19.85 20.5889L18.7945 16.0108L22.318 12.9358C22.5044 12.7745 22.6389 12.5616 22.7046 12.3241C22.7704 12.0865 22.7644 11.8348 22.6875 11.6006ZM21.4985 11.9913L17.975 15.0662C17.8035 15.2154 17.676 15.4085 17.606 15.6248C17.5361 15.841 17.5265 16.0723 17.5781 16.2936L18.6367 20.8748L14.6469 18.453C14.4522 18.3344 14.2287 18.2717 14.0008 18.2717C13.7729 18.2717 13.5494 18.3344 13.3547 18.453L9.37033 20.8748L10.4219 16.2967C10.4736 16.0754 10.4639 15.8442 10.394 15.6279C10.3241 15.4116 10.1965 15.2185 10.025 15.0694L6.50002 11.9959C6.49973 11.9936 6.49973 11.9912 6.50002 11.9889L11.1438 11.5873C11.3705 11.5674 11.5874 11.4859 11.7712 11.3516C11.955 11.2174 12.0987 11.0355 12.1867 10.8256L14 6.50609L15.8125 10.8256C15.9005 11.0355 16.0442 11.2174 16.228 11.3516C16.4118 11.4859 16.6288 11.5674 16.8555 11.5873L21.5 11.9889C21.5 11.9889 21.5 11.9936 21.5 11.9944L21.4985 11.9913Z" fill="#3A3A3C"/>
</svg>
