<svg width="23" height="23" viewBox="0 0 23 23" fill="none" xmlns="http://www.w3.org/2000/svg">
<path d="M5.41146 5.08333H10.9115C11.4156 5.08333 11.8281 4.67083 11.8281 4.16667C11.8281 3.6625 11.4156 3.25 10.9115 3.25H5.41146C4.40312 3.25 3.57812 4.075 3.57812 5.08333V17.9167C3.57812 18.925 4.40312 19.75 5.41146 19.75H10.9115C11.4156 19.75 11.8281 19.3375 11.8281 18.8333C11.8281 18.3292 11.4156 17.9167 10.9115 17.9167H5.41146V5.08333Z" fill="#FF3B3B"/>
<path d="M19.7573 11.1788L17.1998 8.62134C17.136 8.55584 17.0542 8.51086 16.9647 8.49215C16.8753 8.47344 16.7822 8.48185 16.6976 8.5163C16.6129 8.55075 16.5405 8.60969 16.4895 8.68555C16.4385 8.76142 16.4114 8.85077 16.4115 8.94217V10.583H9.99479C9.49062 10.583 9.07812 10.9955 9.07812 11.4997C9.07812 12.0038 9.49062 12.4163 9.99479 12.4163H16.4115V14.0572C16.4115 14.4697 16.9065 14.6713 17.1906 14.378L19.7481 11.8205C19.9315 11.6463 19.9315 11.353 19.7573 11.1788Z" fill="#FF3B3B"/>
</svg>
