<svg width="22" height="22" viewBox="0 0 22 22" fill="none" xmlns="http://www.w3.org/2000/svg">
<path d="M18.5625 3.4375H3.4375C3.07283 3.4375 2.72309 3.58237 2.46523 3.84023C2.20737 4.09809 2.0625 4.44783 2.0625 4.8125V17.1875C2.0625 17.5522 2.20737 17.9019 2.46523 18.1598C2.72309 18.4176 3.07283 18.5625 3.4375 18.5625H4.5882C4.71832 18.5625 4.84577 18.5257 4.95576 18.4561C5.06575 18.3866 5.15374 18.2873 5.20953 18.1698C5.54384 17.4639 6.07167 16.8675 6.73161 16.4499C7.39155 16.0322 8.1565 15.8105 8.9375 15.8105C9.7185 15.8105 10.4834 16.0322 11.1434 16.4499C11.8033 16.8675 12.3312 17.4639 12.6655 18.1698C12.7213 18.2873 12.8093 18.3866 12.9192 18.4561C13.0292 18.5257 13.1567 18.5625 13.2868 18.5625H18.5625C18.9272 18.5625 19.2769 18.4176 19.5348 18.1598C19.7926 17.9019 19.9375 17.5522 19.9375 17.1875V4.8125C19.9375 4.44783 19.7926 4.09809 19.5348 3.84023C19.2769 3.58237 18.9272 3.4375 18.5625 3.4375ZM6.875 12.375C6.875 11.9671 6.99596 11.5683 7.22259 11.2291C7.44922 10.89 7.77134 10.6256 8.14822 10.4695C8.52509 10.3134 8.93979 10.2725 9.33987 10.3521C9.73996 10.4317 10.1075 10.6281 10.3959 10.9166C10.6844 11.205 10.8808 11.5725 10.9604 11.9726C11.04 12.3727 10.9991 12.7874 10.843 13.1643C10.6869 13.5412 10.4225 13.8633 10.0834 14.0899C9.74419 14.3165 9.34542 14.4375 8.9375 14.4375C8.39049 14.4375 7.86589 14.2202 7.47909 13.8334C7.0923 13.4466 6.875 12.922 6.875 12.375ZM18.5625 17.1875H13.701C13.1269 16.2004 12.2615 15.4152 11.2234 14.9394C11.7439 14.476 12.1112 13.8654 12.2767 13.1885C12.4421 12.5116 12.398 11.8004 12.1501 11.1491C11.9022 10.4979 11.4622 9.93736 10.8884 9.54187C10.3147 9.14638 9.63433 8.9346 8.9375 8.9346C8.24067 8.9346 7.56029 9.14638 6.98655 9.54187C6.41282 9.93736 5.97283 10.4979 5.72491 11.1491C5.477 11.8004 5.43286 12.5116 5.59834 13.1885C5.76383 13.8654 6.13114 14.476 6.65156 14.9394C5.61353 15.4152 4.7481 16.2004 4.17398 17.1875H3.4375V4.8125H18.5625V17.1875ZM4.8125 8.25V6.875C4.8125 6.69266 4.88493 6.5178 5.01386 6.38886C5.1428 6.25993 5.31766 6.1875 5.5 6.1875H16.5C16.6823 6.1875 16.8572 6.25993 16.9861 6.38886C17.1151 6.5178 17.1875 6.69266 17.1875 6.875V15.125C17.1875 15.3073 17.1151 15.4822 16.9861 15.6111C16.8572 15.7401 16.6823 15.8125 16.5 15.8125H15.125C14.9427 15.8125 14.7678 15.7401 14.6389 15.6111C14.5099 15.4822 14.4375 15.3073 14.4375 15.125C14.4375 14.9427 14.5099 14.7678 14.6389 14.6389C14.7678 14.5099 14.9427 14.4375 15.125 14.4375H15.8125V7.5625H6.1875V8.25C6.1875 8.43234 6.11507 8.6072 5.98614 8.73614C5.8572 8.86507 5.68234 8.9375 5.5 8.9375C5.31766 8.9375 5.1428 8.86507 5.01386 8.73614C4.88493 8.6072 4.8125 8.43234 4.8125 8.25Z" fill="#6B7588"/>
</svg>
