<svg width="29" height="29" viewBox="0 0 29 29" fill="none" xmlns="http://www.w3.org/2000/svg">
<path d="M20.965 19.5H8.46499C8.3556 19.4993 8.2483 19.47 8.15381 19.4149C8.05932 19.3597 7.98095 19.2808 7.92654 19.1859C7.87213 19.091 7.84358 18.9835 7.84375 18.8741C7.84392 18.7647 7.87279 18.6572 7.92749 18.5625C8.44233 17.6719 9.08999 15.4227 9.08999 12.625C9.08999 11.1332 9.68262 9.70242 10.7375 8.64752C11.7924 7.59263 13.2231 7 14.715 7C16.2068 7 17.6376 7.59263 18.6925 8.64752C19.7474 9.70242 20.34 11.1332 20.34 12.625C20.34 15.4234 20.9884 17.6719 21.5041 18.5625C21.5588 18.6574 21.5877 18.7649 21.5878 18.8745C21.5879 18.984 21.5592 19.0916 21.5046 19.1865C21.45 19.2815 21.3714 19.3604 21.2767 19.4154C21.182 19.4705 21.0745 19.4996 20.965 19.5Z" fill="#C7C9D9"/>
<path d="M22.0421 18.2453C21.6085 17.4984 20.9639 15.3852 20.9639 12.625C20.9639 10.9674 20.3055 9.37769 19.1334 8.20558C17.9613 7.03348 16.3715 6.375 14.7139 6.375C13.0563 6.375 11.4666 7.03348 10.2945 8.20558C9.12242 9.37769 8.46394 10.9674 8.46394 12.625C8.46394 15.3859 7.81863 17.4984 7.38503 18.2453C7.27431 18.4352 7.21561 18.6509 7.21485 18.8707C7.2141 19.0905 7.27131 19.3066 7.38073 19.4973C7.49015 19.6879 7.64791 19.8463 7.83808 19.9565C8.02826 20.0667 8.24413 20.1248 8.46394 20.125H11.6522C11.7964 20.8306 12.1799 21.4647 12.7378 21.9201C13.2957 22.3756 13.9938 22.6243 14.7139 22.6243C15.4341 22.6243 16.1322 22.3756 16.6901 21.9201C17.248 21.4647 17.6315 20.8306 17.7757 20.125H20.9639C21.1837 20.1247 21.3995 20.0665 21.5895 19.9562C21.7796 19.846 21.9372 19.6875 22.0466 19.4969C22.1559 19.3063 22.213 19.0903 22.2122 18.8705C22.2115 18.6508 22.1528 18.4351 22.0421 18.2453ZM14.7139 21.375C14.3263 21.3749 13.9482 21.2546 13.6317 21.0308C13.3153 20.8069 13.076 20.4905 12.9468 20.125H16.4811C16.3519 20.4905 16.1126 20.8069 15.7961 21.0308C15.4797 21.2546 15.1016 21.3749 14.7139 21.375ZM8.46394 18.875C9.0655 17.8406 9.71394 15.4438 9.71394 12.625C9.71394 11.2989 10.2407 10.0271 11.1784 9.08947C12.1161 8.15178 13.3879 7.625 14.7139 7.625C16.04 7.625 17.3118 8.15178 18.2495 9.08947C19.1872 10.0271 19.7139 11.2989 19.7139 12.625C19.7139 15.4414 20.3608 17.8383 20.9639 18.875H8.46394Z" fill="#3A3A3C"/>
</svg>
