<svg width="16" height="17" viewBox="0 0 16 17" fill="none" xmlns="http://www.w3.org/2000/svg">
<path d="M14.3516 14.8559C14.2582 14.9478 14.1326 14.9994 14.0016 14.9996C13.8688 14.999 13.7413 14.9476 13.6453 14.8559L10.9453 12.1496C9.80818 13.1047 8.34621 13.584 6.86431 13.4874C5.38242 13.3908 3.99502 12.7259 2.99147 11.6313C1.98792 10.5366 1.44571 9.09681 1.47792 7.61212C1.51013 6.12743 2.11428 4.71249 3.16436 3.66241C4.21444 2.61233 5.62938 2.00818 7.11407 1.97597C8.59876 1.94375 10.0386 2.48596 11.1332 3.48951C12.2278 4.49306 12.8928 5.88046 12.9894 7.36236C13.0859 8.84426 12.6067 10.3062 11.6516 11.4434L14.3516 14.1434C14.3988 14.1899 14.4363 14.2453 14.4619 14.3065C14.4875 14.3677 14.5007 14.4333 14.5007 14.4996C14.5007 14.5659 14.4875 14.6316 14.4619 14.6927C14.4363 14.7539 14.3988 14.8093 14.3516 14.8559ZM7.25156 12.4996C8.19102 12.4996 9.10939 12.221 9.89052 11.6991C10.6717 11.1772 11.2805 10.4353 11.64 9.56736C11.9995 8.69941 12.0936 7.74434 11.9103 6.82293C11.727 5.90152 11.2746 5.05515 10.6103 4.39085C9.94602 3.72655 9.09965 3.27416 8.17824 3.09088C7.25683 2.9076 6.30176 3.00166 5.43382 3.36118C4.56587 3.7207 3.82402 4.32952 3.30208 5.11065C2.78014 5.89178 2.50156 6.81015 2.50156 7.74961C2.50322 9.00888 3.00419 10.2161 3.89463 11.1065C4.78507 11.997 5.99229 12.498 7.25156 12.4996Z" fill="#C7C9D9"/>
</svg>
