<svg width="21" height="21" viewBox="0 0 21 21" fill="none" xmlns="http://www.w3.org/2000/svg">
<path d="M10.5 13.125C11.9497 13.125 13.125 11.9497 13.125 10.5C13.125 9.05025 11.9497 7.875 10.5 7.875C9.05025 7.875 7.875 9.05025 7.875 10.5C7.875 11.9497 9.05025 13.125 10.5 13.125Z" stroke="#6B7588" stroke-width="1.5"/>
<path d="M12.044 1.883C11.7229 1.75 11.3152 1.75 10.4997 1.75C9.68416 1.75 9.27641 1.75 8.95529 1.883C8.74282 1.97095 8.54977 2.09991 8.38717 2.26251C8.22457 2.42511 8.09561 2.61816 8.00766 2.83063C7.92716 3.02575 7.89479 3.25413 7.88254 3.58575C7.87708 3.82549 7.81079 4.05991 7.68987 4.267C7.56896 4.47409 7.39739 4.64704 7.19129 4.76963C6.98207 4.88691 6.74647 4.94909 6.50663 4.95031C6.26678 4.95154 6.03056 4.89177 5.82016 4.77663C5.52616 4.62088 5.31354 4.53513 5.10266 4.50713C4.64269 4.44664 4.17752 4.57127 3.80941 4.85363C3.53466 5.06625 3.32991 5.41888 2.92216 6.125C2.51441 6.83113 2.30966 7.18375 2.26504 7.52938C2.23497 7.75727 2.25009 7.98886 2.30955 8.21091C2.369 8.43296 2.47162 8.64112 2.61154 8.8235C2.74104 8.9915 2.92216 9.13238 3.20304 9.30913C3.61691 9.569 3.88291 10.0118 3.88291 10.5C3.88291 10.9883 3.61691 11.431 3.20304 11.69C2.92216 11.8676 2.74016 12.0085 2.61154 12.1765C2.47162 12.3589 2.369 12.567 2.30955 12.7891C2.25009 13.0111 2.23497 13.2427 2.26504 13.4706C2.31054 13.8154 2.51441 14.1689 2.92129 14.875C3.32991 15.5811 3.53379 15.9338 3.80941 16.1464C3.99179 16.2863 4.19995 16.3889 4.422 16.4484C4.64405 16.5078 4.87564 16.5229 5.10354 16.4929C5.31354 16.4649 5.52616 16.3791 5.82016 16.2234C6.03056 16.1082 6.26678 16.0485 6.50663 16.0497C6.74647 16.0509 6.98207 16.1131 7.19129 16.2304C7.61391 16.4754 7.86504 16.926 7.88254 17.4143C7.89479 17.7468 7.92629 17.9743 8.00766 18.1694C8.09561 18.3818 8.22457 18.5749 8.38717 18.7375C8.54977 18.9001 8.74282 19.0291 8.95529 19.117C9.27641 19.25 9.68416 19.25 10.4997 19.25C11.3152 19.25 11.7229 19.25 12.044 19.117C12.2565 19.0291 12.4496 18.9001 12.6122 18.7375C12.7748 18.5749 12.9037 18.3818 12.9917 18.1694C13.0722 17.9743 13.1045 17.7468 13.1168 17.4143C13.1343 16.926 13.3854 16.4745 13.808 16.2304C14.0173 16.1131 14.2528 16.0509 14.4927 16.0497C14.7325 16.0485 14.9688 16.1082 15.1792 16.2234C15.4732 16.3791 15.6858 16.4649 15.8958 16.4929C16.1237 16.5229 16.3553 16.5078 16.5773 16.4484C16.7994 16.3889 17.0075 16.2863 17.1899 16.1464C17.4655 15.9346 17.6694 15.5811 18.0772 14.875C18.4849 14.1689 18.6897 13.8163 18.7343 13.4706C18.7644 13.2427 18.7492 13.0111 18.6898 12.7891C18.6303 12.567 18.5277 12.3589 18.3878 12.1765C18.2583 12.0085 18.0772 11.8676 17.7963 11.6909C17.5913 11.5663 17.4214 11.3916 17.3024 11.1833C17.1835 10.975 17.1195 10.7399 17.1164 10.5C17.1164 10.0118 17.3824 9.569 17.7963 9.31C18.0772 9.13238 18.2592 8.9915 18.3878 8.8235C18.5277 8.64112 18.6303 8.43296 18.6898 8.21091C18.7492 7.98886 18.7644 7.75727 18.7343 7.52938C18.6888 7.18463 18.4849 6.83113 18.078 6.125C17.6694 5.41888 17.4655 5.06625 17.1899 4.85363C17.0075 4.7137 16.7994 4.61109 16.5773 4.55163C16.3553 4.49218 16.1237 4.47706 15.8958 4.50713C15.6858 4.53513 15.4732 4.62088 15.1783 4.77663C14.968 4.89161 14.7319 4.9513 14.4923 4.95007C14.2526 4.94885 14.0171 4.88676 13.808 4.76963C13.6019 4.64704 13.4304 4.47409 13.3095 4.267C13.1885 4.05991 13.1222 3.82549 13.1168 3.58575C13.1045 3.25325 13.073 3.02575 12.9917 2.83063C12.9037 2.61816 12.7748 2.42511 12.6122 2.26251C12.4496 2.09991 12.2565 1.97095 12.044 1.883Z" stroke="#6B7588" stroke-width="1.5"/>
</svg>
