<svg width="22" height="22" viewBox="0 0 22 22" fill="none" xmlns="http://www.w3.org/2000/svg">
<path d="M11.9154 4.58301V6.41634M11.9154 15.583V17.4163M11.9154 10.083V11.9163M1.83203 8.24967C2.56138 8.24967 3.26085 8.53941 3.77657 9.05513C4.2923 9.57086 4.58203 10.2703 4.58203 10.9997C4.58203 11.729 4.2923 12.4285 3.77657 12.9442C3.26085 13.4599 2.56138 13.7497 1.83203 13.7497V15.583C1.83203 16.0692 2.02519 16.5356 2.369 16.8794C2.71282 17.2232 3.17913 17.4163 3.66536 17.4163H18.332C18.8183 17.4163 19.2846 17.2232 19.6284 16.8794C19.9722 16.5356 20.1654 16.0692 20.1654 15.583V13.7497C19.436 13.7497 18.7365 13.4599 18.2208 12.9442C17.7051 12.4285 17.4154 11.729 17.4154 10.9997C17.4154 10.2703 17.7051 9.57086 18.2208 9.05513C18.7365 8.53941 19.436 8.24967 20.1654 8.24967V6.41634C20.1654 5.93011 19.9722 5.4638 19.6284 5.11998C19.2846 4.77616 18.8183 4.58301 18.332 4.58301H3.66536C3.17913 4.58301 2.71282 4.77616 2.369 5.11998C2.02519 5.4638 1.83203 5.93011 1.83203 6.41634V8.24967Z" stroke="#6B7588" stroke-width="1.7" stroke-linecap="round" stroke-linejoin="round"/>
</svg>
