<svg width="123" height="90" viewBox="0 0 123 90" fill="none" xmlns="http://www.w3.org/2000/svg">
<path d="M1.42188 72.1376H10.851C11.7789 72.1376 12.6146 71.576 12.9651 70.7168L20.5284 52.1766C20.8789 51.3174 21.7146 50.7558 22.6426 50.7558H27.3985C28.3265 50.7558 29.1621 50.1942 29.5126 49.3349L38.8039 26.559C39.5768 24.6646 42.2594 24.6646 43.0322 26.559L43.6752 28.1352C44.0257 28.9944 44.8614 29.556 45.7893 29.556H46.8742C47.8022 29.556 48.6378 30.1176 48.9883 30.9769L58.6882 54.7543C59.461 56.6488 62.1437 56.6488 62.9165 54.7543L66.1108 46.9242C66.8836 45.0297 69.5662 45.0297 70.3391 46.9242L70.6416 47.6657C70.9921 48.5249 71.8277 49.0865 72.7557 49.0865H81.876C82.804 49.0865 83.6396 48.5249 83.9901 47.6657L101.181 5.5262C101.953 3.63174 104.636 3.63174 105.409 5.5262L121 43.7448" stroke="#F8CA25" stroke-width="2.5" stroke-linecap="round"/>
<path d="M10.4686 71.9312H3.28329C2.02227 71.9312 1 72.9534 1 74.2145V87.7167C1 88.9777 2.02227 90 3.28329 90H118.716C119.977 90 120.999 88.9777 120.999 87.7167V43.9326C120.999 43.6364 120.942 43.3431 120.83 43.0689L105.345 5.17295C104.572 3.28008 101.891 3.28007 101.118 5.17295L83.8574 47.4163C83.5066 48.2749 82.6712 48.836 81.7438 48.836H72.5787C71.6512 48.836 70.8158 48.2749 70.465 47.4163L70.1519 46.6501C69.3785 44.7572 66.698 44.7572 65.9246 46.6501L62.7032 54.534C61.9298 56.4269 59.2493 56.4269 58.4759 54.534L48.7324 30.6878C48.3815 29.8292 47.5462 29.2681 46.6187 29.2681H45.5173C44.5899 29.2681 43.7545 28.7071 43.4037 27.8485L42.7489 26.246C41.9755 24.3531 39.295 24.3531 38.5216 26.246L29.1881 49.0888C28.8373 49.9474 28.0019 50.5084 27.0744 50.5084H22.2891C21.3616 50.5084 20.5263 51.0695 20.1754 51.9281L12.5823 70.5115C12.2315 71.3701 11.3961 71.9312 10.4686 71.9312Z" fill="url(#paint0_linear_268_334)"/>
<defs>
<linearGradient id="paint0_linear_268_334" x1="60.9996" y1="-23.0593" x2="60.9996" y2="90.1721" gradientUnits="userSpaceOnUse">
<stop stop-color="#4C99FF" stop-opacity="0.4"/>
<stop offset="0.0001" stop-color="#FFCC00" stop-opacity="0.4"/>
<stop offset="1" stop-color="#FFCC00" stop-opacity="0"/>
</linearGradient>
</defs>
</svg>
